<?xml version="1.0" encoding="UTF-8"?>
<svg xmlns="http://www.w3.org/2000/svg" xmlns:xlink="http://www.w3.org/1999/xlink" width="34pt" height="12pt" viewBox="0 0 34 12" version="1.1">
<g id="surface1">
<path style=" stroke:none;fill-rule:nonzero;fill:rgb(0%,62.745098%,100%);fill-opacity:1;" d="M 9.414062 1.476562 C 9.203125 1.320312 8.984375 1.175781 8.761719 1.050781 C 8.601562 0.960938 8.398438 1.003906 8.285156 1.152344 L 6.882812 3.03125 L 6.785156 3.164062 C 6.632812 3.367188 6.390625 3.476562 6.136719 3.464844 C 6.046875 3.460938 5.953125 3.464844 5.863281 3.46875 C 5.15625 3.515625 4.476562 3.855469 4.019531 4.46875 C 3.648438 4.964844 3.488281 5.546875 3.519531 6.121094 C 3.523438 6.222656 3.582031 6.316406 3.675781 6.359375 C 3.867188 6.449219 4.015625 6.628906 4.054688 6.859375 C 4.105469 7.1875 3.90625 7.507812 3.59375 7.601562 C 3.222656 7.714844 2.84375 7.484375 2.757812 7.109375 C 2.714844 6.910156 2.765625 6.707031 2.882812 6.554688 C 2.949219 6.472656 2.980469 6.367188 2.972656 6.261719 C 2.910156 5.527344 3.101562 4.769531 3.574219 4.132812 C 4.171875 3.335938 5.082031 2.910156 6.003906 2.90625 C 6.179688 2.90625 6.347656 2.820312 6.453125 2.675781 L 7.746094 0.945312 C 7.847656 0.8125 7.78125 0.617188 7.621094 0.570312 C 5.457031 -0.0703125 3.039062 0.648438 1.589844 2.550781 C -0.289062 5.019531 0.167969 8.578125 2.605469 10.476562 C 2.835938 10.65625 3.074219 10.8125 3.316406 10.949219 C 3.480469 11.039062 3.679688 10.996094 3.792969 10.847656 L 5.195312 8.96875 L 5.292969 8.835938 C 5.445312 8.632812 5.6875 8.523438 5.941406 8.535156 C 6.03125 8.539062 6.125 8.535156 6.214844 8.53125 C 6.921875 8.484375 7.601562 8.144531 8.058594 7.53125 C 8.425781 7.035156 8.589844 6.453125 8.558594 5.878906 C 8.554688 5.777344 8.496094 5.683594 8.402344 5.640625 C 8.210938 5.550781 8.058594 5.371094 8.023438 5.140625 C 7.972656 4.8125 8.167969 4.492188 8.484375 4.398438 C 8.855469 4.285156 9.234375 4.515625 9.316406 4.890625 C 9.363281 5.089844 9.3125 5.292969 9.195312 5.445312 C 9.128906 5.527344 9.09375 5.632812 9.105469 5.738281 C 9.167969 6.472656 8.976562 7.230469 8.503906 7.867188 C 7.90625 8.664062 6.996094 9.089844 6.074219 9.09375 C 5.898438 9.09375 5.730469 9.179688 5.625 9.324219 L 4.332031 11.054688 C 4.230469 11.1875 4.296875 11.382812 4.457031 11.429688 C 6.632812 12.078125 9.078125 11.339844 10.523438 9.402344 C 12.386719 6.90625 11.890625 3.359375 9.414062 1.476562 Z M 9.414062 1.476562 "/>
<path style=" stroke:none;fill-rule:nonzero;fill:rgb(0%,62.745098%,100%);fill-opacity:1;" d="M 18.675781 3.023438 L 18.675781 2.890625 C 18.675781 2.792969 18.597656 2.714844 18.5 2.714844 L 14.128906 2.714844 C 14.035156 2.714844 13.957031 2.792969 13.957031 2.890625 L 13.957031 3.160156 C 13.957031 3.257812 14.035156 3.335938 14.128906 3.335938 L 17.839844 3.335938 C 17.945312 3.335938 18.027344 3.429688 18.011719 3.535156 C 17.90625 4.230469 17.582031 5.53125 16.5625 6.78125 C 16.492188 6.867188 16.355469 6.867188 16.289062 6.777344 C 15.433594 5.679688 15.171875 4.550781 15.101562 4.136719 C 15.085938 4.042969 15 3.980469 14.910156 3.992188 L 14.769531 4.007812 L 14.648438 4.019531 C 14.546875 4.03125 14.476562 4.125 14.492188 4.226562 C 14.582031 4.703125 14.898438 6.011719 15.902344 7.257812 C 15.957031 7.332031 15.953125 7.4375 15.886719 7.5 C 14.667969 8.625 13.570312 8.875 13.179688 8.925781 C 13.09375 8.9375 13.027344 9.011719 13.027344 9.101562 L 13.027344 9.375 C 13.027344 9.476562 13.117188 9.558594 13.222656 9.546875 C 13.6875 9.492188 14.933594 9.226562 16.304688 7.953125 C 16.375 7.890625 16.476562 7.890625 16.542969 7.953125 C 17.210938 8.574219 18.058594 9.171875 19.203125 9.539062 C 19.296875 9.566406 19.394531 9.511719 19.421875 9.417969 L 19.496094 9.160156 C 19.523438 9.070312 19.472656 8.972656 19.382812 8.945312 C 18.339844 8.609375 17.570312 8.070312 16.96875 7.515625 C 16.898438 7.453125 16.894531 7.34375 16.957031 7.273438 C 18.65625 5.269531 18.675781 3.121094 18.675781 3.023438 Z M 18.675781 3.023438 "/>
<path style=" stroke:none;fill-rule:nonzero;fill:rgb(0%,62.745098%,100%);fill-opacity:1;" d="M 21.710938 2.433594 L 21.445312 2.433594 C 21.347656 2.433594 21.269531 2.511719 21.269531 2.609375 L 21.269531 3.550781 C 21.269531 3.648438 21.191406 3.726562 21.09375 3.726562 L 20.46875 3.726562 C 20.371094 3.726562 20.292969 3.804688 20.292969 3.902344 L 20.292969 4.171875 C 20.292969 4.269531 20.371094 4.347656 20.46875 4.347656 L 21.09375 4.347656 C 21.191406 4.347656 21.269531 4.425781 21.269531 4.523438 L 21.269531 5.890625 C 21.269531 5.988281 21.191406 6.066406 21.09375 6.066406 L 20.46875 6.066406 C 20.371094 6.066406 20.292969 6.144531 20.292969 6.242188 L 20.292969 6.511719 C 20.292969 6.609375 20.371094 6.6875 20.46875 6.6875 L 21.09375 6.6875 C 21.191406 6.6875 21.269531 6.765625 21.269531 6.863281 L 21.269531 8.152344 C 21.269531 8.433594 21.160156 8.890625 20.449219 8.953125 C 20.359375 8.960938 20.285156 9.035156 20.285156 9.128906 L 20.285156 9.394531 C 20.285156 9.496094 20.371094 9.578125 20.472656 9.570312 C 21.164062 9.511719 21.886719 9.117188 21.886719 8.152344 L 21.886719 6.863281 C 21.886719 6.765625 21.964844 6.6875 22.058594 6.6875 L 22.617188 6.6875 C 22.714844 6.6875 22.792969 6.609375 22.792969 6.511719 L 22.792969 6.242188 C 22.792969 6.144531 22.714844 6.066406 22.617188 6.066406 L 22.058594 6.066406 C 21.964844 6.066406 21.886719 5.988281 21.886719 5.890625 L 21.886719 4.523438 C 21.886719 4.425781 21.964844 4.347656 22.058594 4.347656 L 22.617188 4.347656 C 22.714844 4.347656 22.792969 4.269531 22.792969 4.171875 L 22.792969 3.902344 C 22.792969 3.804688 22.714844 3.726562 22.617188 3.726562 L 22.058594 3.726562 C 21.964844 3.726562 21.886719 3.648438 21.886719 3.550781 L 21.886719 2.609375 C 21.886719 2.511719 21.808594 2.433594 21.710938 2.433594 Z M 21.710938 2.433594 "/>
<path style=" stroke:none;fill-rule:nonzero;fill:rgb(0%,62.745098%,100%);fill-opacity:1;" d="M 23.097656 9.351562 C 23.097656 9.449219 23.175781 9.527344 23.273438 9.527344 L 25.242188 9.527344 C 26.109375 9.527344 26.820312 8.847656 26.820312 8.011719 L 26.820312 3.84375 C 26.820312 3.746094 26.742188 3.667969 26.644531 3.667969 L 23.273438 3.667969 C 23.175781 3.667969 23.097656 3.746094 23.097656 3.84375 Z M 25.242188 8.90625 L 23.890625 8.90625 C 23.792969 8.90625 23.714844 8.828125 23.714844 8.730469 L 23.714844 6.863281 C 23.714844 6.765625 23.792969 6.6875 23.890625 6.6875 L 26.027344 6.6875 C 26.125 6.6875 26.203125 6.765625 26.203125 6.863281 L 26.203125 8.011719 C 26.203125 8.507812 25.769531 8.90625 25.242188 8.90625 Z M 26.203125 4.464844 L 26.203125 5.890625 C 26.203125 5.988281 26.125 6.066406 26.027344 6.066406 L 23.890625 6.066406 C 23.792969 6.066406 23.714844 5.988281 23.714844 5.890625 L 23.714844 4.464844 C 23.714844 4.367188 23.792969 4.289062 23.890625 4.289062 L 26.027344 4.289062 C 26.125 4.289062 26.203125 4.367188 26.203125 4.464844 Z M 26.203125 4.464844 "/>
<path style=" stroke:none;fill-rule:nonzero;fill:rgb(0%,62.745098%,100%);fill-opacity:1;" d="M 25.777344 2.429688 L 24.042969 2.429688 C 23.945312 2.429688 23.867188 2.507812 23.867188 2.605469 L 23.867188 2.871094 C 23.867188 2.96875 23.945312 3.046875 24.042969 3.046875 L 25.777344 3.046875 C 25.875 3.046875 25.953125 2.96875 25.953125 2.871094 L 25.953125 2.605469 C 25.953125 2.507812 25.875 2.429688 25.777344 2.429688 Z M 25.777344 2.429688 "/>
<path style=" stroke:none;fill-rule:nonzero;fill:rgb(0%,62.745098%,100%);fill-opacity:1;" d="M 32.421875 2.699219 L 28.800781 2.699219 C 28.703125 2.699219 28.625 2.78125 28.625 2.875 L 28.625 3.144531 C 28.625 3.242188 28.703125 3.320312 28.800781 3.320312 L 32.421875 3.320312 C 32.515625 3.320312 32.59375 3.242188 32.59375 3.144531 L 32.59375 2.875 C 32.59375 2.78125 32.515625 2.699219 32.421875 2.699219 Z M 32.421875 2.699219 "/>
<path style=" stroke:none;fill-rule:nonzero;fill:rgb(0%,62.745098%,100%);fill-opacity:1;" d="M 30.875 5.8125 L 33.394531 5.8125 C 33.492188 5.8125 33.570312 5.734375 33.570312 5.636719 L 33.570312 5.367188 C 33.570312 5.269531 33.492188 5.191406 33.394531 5.191406 L 27.824219 5.191406 C 27.730469 5.191406 27.652344 5.269531 27.652344 5.367188 L 27.652344 5.636719 C 27.652344 5.734375 27.730469 5.8125 27.824219 5.8125 L 29.550781 5.8125 C 29.6875 5.8125 29.773438 5.96875 29.695312 6.085938 L 28.546875 8.171875 C 28.515625 8.21875 28.496094 8.265625 28.476562 8.3125 C 28.382812 8.597656 28.425781 8.898438 28.601562 9.144531 C 28.785156 9.402344 29.085938 9.558594 29.410156 9.558594 L 32.554688 9.558594 C 32.695312 9.558594 32.824219 9.488281 32.898438 9.367188 C 32.972656 9.25 32.980469 9.105469 32.921875 8.980469 L 32.191406 7.554688 C 32.148438 7.46875 32.042969 7.433594 31.957031 7.480469 L 31.71875 7.601562 C 31.632812 7.648438 31.601562 7.753906 31.644531 7.839844 L 32.074219 8.679688 C 32.132812 8.796875 32.050781 8.9375 31.917969 8.9375 L 29.410156 8.9375 C 29.28125 8.9375 29.171875 8.882812 29.101562 8.785156 C 29.070312 8.742188 29.027344 8.652344 29.050781 8.542969 C 29.058594 8.527344 29.066406 8.507812 29.074219 8.492188 L 30.46875 6.03125 C 30.558594 5.894531 30.710938 5.8125 30.875 5.8125 Z M 30.875 5.8125 "/>
</g>
</svg>
