<?xml version="1.0" encoding="UTF-8"?>
<svg xmlns="http://www.w3.org/2000/svg" xmlns:xlink="http://www.w3.org/1999/xlink" width="35pt" height="12pt" viewBox="0 0 35 12" version="1.1">
<g id="surface1">
<path style=" stroke:none;fill-rule:nonzero;fill:rgb(100%,100%,100%);fill-opacity:1;" d="M 9.394531 1.292969 C 9.175781 1.136719 8.953125 0.980469 8.703125 0.851562 C 8.546875 0.757812 8.324219 0.789062 8.199219 0.949219 L 6.714844 2.90625 L 6.621094 3.03125 C 6.464844 3.253906 6.210938 3.347656 5.960938 3.347656 L 5.675781 3.347656 C 4.949219 3.378906 4.226562 3.757812 3.753906 4.390625 C 3.375 4.894531 3.183594 5.496094 3.214844 6.09375 C 3.214844 6.191406 3.277344 6.285156 3.375 6.347656 C 3.5625 6.441406 3.722656 6.632812 3.785156 6.851562 C 3.847656 7.199219 3.625 7.515625 3.3125 7.609375 C 2.933594 7.738281 2.523438 7.484375 2.429688 7.105469 C 2.363281 6.882812 2.429688 6.695312 2.554688 6.535156 C 2.617188 6.441406 2.648438 6.347656 2.648438 6.222656 C 2.585938 5.464844 2.773438 4.671875 3.277344 4.011719 C 3.910156 3.191406 4.855469 2.746094 5.832031 2.746094 C 6.023438 2.746094 6.179688 2.652344 6.304688 2.496094 L 7.664062 0.695312 C 7.757812 0.570312 7.695312 0.347656 7.535156 0.316406 C 5.265625 -0.316406 2.742188 0.441406 1.199219 2.429688 C -0.757812 4.988281 -0.285156 8.683594 2.269531 10.671875 C 2.523438 10.863281 2.742188 11.019531 3.027344 11.179688 C 3.183594 11.273438 3.40625 11.242188 3.53125 11.085938 L 5.011719 9.125 L 5.109375 9 C 5.265625 8.777344 5.519531 8.683594 5.769531 8.683594 L 6.054688 8.683594 C 6.777344 8.652344 7.503906 8.273438 7.976562 7.640625 C 8.355469 7.136719 8.546875 6.535156 8.511719 5.9375 C 8.511719 5.84375 8.449219 5.746094 8.355469 5.683594 C 8.167969 5.589844 8.007812 5.398438 7.945312 5.179688 C 7.882812 4.832031 8.105469 4.515625 8.417969 4.421875 C 8.796875 4.292969 9.207031 4.546875 9.300781 4.925781 C 9.363281 5.148438 9.300781 5.335938 9.175781 5.496094 C 9.113281 5.589844 9.082031 5.683594 9.082031 5.808594 C 9.144531 6.570312 8.953125 7.359375 8.449219 8.019531 C 7.820312 8.84375 6.875 9.285156 5.894531 9.285156 C 5.707031 9.285156 5.550781 9.378906 5.421875 9.535156 L 4.097656 11.242188 C 4.003906 11.367188 4.066406 11.589844 4.226562 11.621094 C 6.496094 12.285156 9.050781 11.527344 10.5625 9.503906 C 12.519531 6.949219 11.980469 3.253906 9.394531 1.292969 Z M 9.394531 1.292969 "/>
<path style=" stroke:none;fill-rule:nonzero;fill:rgb(100%,100%,100%);fill-opacity:1;" d="M 19.109375 3.15625 L 19.109375 3.03125 C 19.109375 2.90625 19.011719 2.84375 18.917969 2.84375 L 14.347656 2.84375 C 14.253906 2.84375 14.15625 2.9375 14.15625 3.03125 L 14.15625 3.316406 C 14.15625 3.410156 14.253906 3.503906 14.347656 3.503906 L 18.226562 3.503906 C 18.351562 3.503906 18.414062 3.601562 18.414062 3.726562 C 18.320312 4.453125 17.972656 5.808594 16.902344 7.105469 C 16.835938 7.199219 16.679688 7.199219 16.617188 7.105469 C 15.734375 5.96875 15.449219 4.800781 15.386719 4.359375 C 15.355469 4.261719 15.292969 4.199219 15.199219 4.199219 L 14.914062 4.199219 C 14.820312 4.199219 14.726562 4.292969 14.757812 4.421875 C 14.851562 4.925781 15.167969 6.285156 16.238281 7.578125 C 16.300781 7.640625 16.300781 7.769531 16.238281 7.832031 C 14.976562 9 13.8125 9.253906 13.402344 9.316406 C 13.304688 9.316406 13.242188 9.410156 13.242188 9.503906 L 13.242188 9.789062 C 13.242188 9.882812 13.335938 9.980469 13.433594 9.980469 C 13.90625 9.914062 15.230469 9.632812 16.648438 8.304688 C 16.710938 8.242188 16.835938 8.242188 16.902344 8.304688 C 17.59375 8.9375 18.476562 9.570312 19.675781 9.949219 C 19.769531 9.980469 19.863281 9.914062 19.894531 9.820312 L 19.992188 9.570312 C 20.023438 9.472656 19.960938 9.378906 19.863281 9.347656 C 18.761719 9 17.972656 8.429688 17.34375 7.863281 C 17.277344 7.800781 17.277344 7.671875 17.34375 7.609375 C 19.078125 5.496094 19.109375 3.253906 19.109375 3.15625 Z M 19.109375 3.15625 "/>
<path style=" stroke:none;fill-rule:nonzero;fill:rgb(100%,100%,100%);fill-opacity:1;" d="M 22.261719 2.558594 L 21.976562 2.558594 C 21.882812 2.558594 21.789062 2.652344 21.789062 2.746094 L 21.789062 3.726562 C 21.789062 3.820312 21.695312 3.914062 21.597656 3.914062 L 20.9375 3.914062 C 20.84375 3.914062 20.746094 4.011719 20.746094 4.105469 L 20.746094 4.390625 C 20.746094 4.484375 20.84375 4.578125 20.9375 4.578125 L 21.597656 4.578125 C 21.695312 4.578125 21.789062 4.671875 21.789062 4.769531 L 21.789062 6.191406 C 21.789062 6.285156 21.695312 6.378906 21.597656 6.378906 L 20.9375 6.378906 C 20.84375 6.378906 20.746094 6.472656 20.746094 6.570312 L 20.746094 6.851562 C 20.746094 6.949219 20.84375 7.042969 20.9375 7.042969 L 21.597656 7.042969 C 21.695312 7.042969 21.789062 7.136719 21.789062 7.230469 L 21.789062 8.589844 C 21.789062 8.875 21.664062 9.347656 20.9375 9.410156 C 20.84375 9.410156 20.777344 9.503906 20.777344 9.601562 L 20.777344 9.789062 C 20.777344 9.882812 20.875 9.980469 20.96875 9.980469 C 21.695312 9.914062 22.449219 9.503906 22.449219 8.496094 L 22.449219 7.136719 C 22.449219 7.042969 22.546875 6.949219 22.640625 6.949219 L 23.238281 6.949219 C 23.332031 6.949219 23.429688 6.851562 23.429688 6.757812 L 23.429688 6.472656 C 23.429688 6.378906 23.332031 6.285156 23.238281 6.285156 L 22.640625 6.285156 C 22.546875 6.285156 22.449219 6.191406 22.449219 6.09375 L 22.449219 4.671875 C 22.449219 4.578125 22.546875 4.484375 22.640625 4.484375 L 23.238281 4.484375 C 23.332031 4.484375 23.429688 4.390625 23.429688 4.292969 L 23.429688 4.011719 C 23.429688 3.914062 23.332031 3.820312 23.238281 3.820312 L 22.640625 3.820312 C 22.546875 3.820312 22.449219 3.726562 22.449219 3.632812 L 22.449219 2.714844 C 22.449219 2.621094 22.386719 2.558594 22.261719 2.558594 Z M 22.261719 2.558594 "/>
<path style=" stroke:none;fill-rule:nonzero;fill:rgb(100%,100%,100%);fill-opacity:1;" d="M 23.710938 9.726562 C 23.710938 9.820312 23.804688 9.914062 23.902344 9.914062 L 25.949219 9.914062 C 26.863281 9.914062 27.589844 9.222656 27.589844 8.335938 L 27.589844 4.011719 C 27.589844 3.914062 27.496094 3.820312 27.402344 3.820312 L 23.902344 3.820312 C 23.804688 3.820312 23.710938 3.914062 23.710938 4.011719 Z M 25.980469 9.285156 L 24.5625 9.285156 C 24.46875 9.285156 24.375 9.191406 24.375 9.09375 L 24.375 7.136719 C 24.375 7.042969 24.46875 6.949219 24.5625 6.949219 L 26.800781 6.949219 C 26.894531 6.949219 26.992188 7.042969 26.992188 7.136719 L 26.992188 8.335938 C 26.992188 8.875 26.519531 9.285156 25.980469 9.285156 Z M 26.992188 4.640625 L 26.992188 6.125 C 26.992188 6.222656 26.894531 6.316406 26.800781 6.316406 L 24.5625 6.316406 C 24.46875 6.316406 24.375 6.222656 24.375 6.125 L 24.375 4.640625 C 24.375 4.546875 24.46875 4.453125 24.5625 4.453125 L 26.800781 4.453125 C 26.894531 4.484375 26.992188 4.546875 26.992188 4.640625 Z M 26.992188 4.640625 "/>
<path style=" stroke:none;fill-rule:nonzero;fill:rgb(100%,100%,100%);fill-opacity:1;" d="M 26.519531 2.527344 L 24.6875 2.527344 C 24.59375 2.527344 24.5 2.621094 24.5 2.714844 L 24.5 3 C 24.5 3.09375 24.59375 3.191406 24.6875 3.191406 L 26.519531 3.191406 C 26.613281 3.191406 26.707031 3.09375 26.707031 3 L 26.707031 2.714844 C 26.707031 2.621094 26.644531 2.527344 26.519531 2.527344 Z M 26.519531 2.527344 "/>
<path style=" stroke:none;fill-rule:nonzero;fill:rgb(100%,100%,100%);fill-opacity:1;" d="M 33.488281 2.808594 L 29.703125 2.808594 C 29.609375 2.808594 29.511719 2.90625 29.511719 3 L 29.511719 3.285156 C 29.511719 3.378906 29.609375 3.472656 29.703125 3.472656 L 33.488281 3.472656 C 33.582031 3.472656 33.675781 3.378906 33.675781 3.285156 L 33.675781 3 C 33.675781 2.90625 33.582031 2.808594 33.488281 2.808594 Z M 33.488281 2.808594 "/>
<path style=" stroke:none;fill-rule:nonzero;fill:rgb(100%,100%,100%);fill-opacity:1;" d="M 31.878906 6.0625 L 34.527344 6.0625 C 34.621094 6.0625 34.714844 5.96875 34.714844 5.875 L 34.714844 5.589844 C 34.714844 5.496094 34.621094 5.398438 34.527344 5.398438 L 28.664062 5.398438 C 28.566406 5.398438 28.472656 5.496094 28.472656 5.589844 L 28.472656 5.875 C 28.472656 5.96875 28.566406 6.0625 28.664062 6.0625 L 30.460938 6.0625 C 30.617188 6.0625 30.679688 6.222656 30.617188 6.347656 L 29.417969 8.527344 C 29.386719 8.589844 29.355469 8.621094 29.355469 8.683594 C 29.261719 8.96875 29.292969 9.285156 29.480469 9.535156 C 29.671875 9.789062 29.988281 9.980469 30.332031 9.980469 L 33.613281 9.980469 C 33.769531 9.980469 33.894531 9.914062 33.960938 9.789062 C 34.023438 9.664062 34.054688 9.503906 33.992188 9.378906 L 33.234375 7.894531 C 33.203125 7.800781 33.078125 7.769531 32.980469 7.832031 L 32.730469 7.957031 C 32.636719 7.988281 32.605469 8.117188 32.667969 8.210938 L 33.109375 9.09375 C 33.171875 9.222656 33.078125 9.347656 32.949219 9.347656 L 30.332031 9.347656 C 30.207031 9.347656 30.082031 9.285156 30.019531 9.191406 C 29.988281 9.15625 29.921875 9.0625 29.953125 8.9375 C 29.953125 8.90625 29.953125 8.90625 29.988281 8.875 L 31.4375 6.316406 C 31.53125 6.15625 31.6875 6.0625 31.878906 6.0625 Z M 31.878906 6.0625 "/>
</g>
</svg>
