<?xml version="1.0" encoding="utf-8"?>
 <!DOCTYPE svg PUBLIC "-//W3C//DTD SVG 20010904//EN" "http://www.w3.org/TR/2001/REC-SVG-20010904/DTD/svg10.dtd">
<svg class="Qr-item-svg" width="100%" height="100%" viewBox="-6.6 -6.6 46.2 46.2" fill="white" xmlns="http://www.w3.org/2000/svg" xmlns:xlink="http://www.w3.org/1999/xlink"><circle opacity="1" r="0.25" fill="#00d084" cx="0.5" cy="8.5"></circle><circle opacity="1" r="0.25" fill="#00d084" cx="0.5" cy="11.5"></circle><circle opacity="1" r="0.25" fill="#00d084" cx="0.5" cy="15.5"></circle><circle opacity="1" r="0.25" fill="#00d084" cx="0.5" cy="16.5"></circle><circle opacity="1" r="0.25" fill="#00d084" cx="0.5" cy="19.5"></circle><circle opacity="1" r="0.25" fill="#00d084" cx="0.5" cy="20.5"></circle><circle opacity="1" r="0.25" fill="#00d084" cx="0.5" cy="21.5"></circle><circle opacity="1" r="0.25" fill="#00d084" cx="0.5" cy="23.5"></circle><circle opacity="1" r="0.25" fill="#00d084" cx="0.5" cy="24.5"></circle><circle opacity="1" r="0.25" fill="#00d084" cx="1.5" cy="8.5"></circle><circle opacity="1" r="0.25" fill="#00d084" cx="1.5" cy="11.5"></circle><circle opacity="1" r="0.25" fill="#00d084" cx="1.5" cy="12.5"></circle><circle opacity="1" r="0.25" fill="#00d084" cx="1.5" cy="14.5"></circle><circle opacity="1" r="0.25" fill="#00d084" cx="1.5" cy="17.5"></circle><circle opacity="1" r="0.25" fill="#00d084" cx="1.5" cy="23.5"></circle><circle opacity="1" r="0.25" fill="#00d084" cx="2.5" cy="9.5"></circle><circle fill="#00d084" cx="2.5" cy="11.5" r="0.25" opacity="1"></circle><circle fill="#00d084" cx="2.5" cy="13.5" r="0.25" opacity="1"></circle><circle opacity="1" r="0.25" fill="#00d084" cx="2.5" cy="14.5"></circle><circle opacity="1" r="0.25" fill="#00d084" cx="2.5" cy="15.5"></circle><circle opacity="1" r="0.25" fill="#00d084" cx="2.5" cy="16.5"></circle><circle opacity="1" r="0.25" fill="#00d084" cx="2.5" cy="18.5"></circle><circle opacity="1" r="0.25" fill="#00d084" cx="2.5" cy="20.5"></circle><circle opacity="1" r="0.25" fill="#00d084" cx="2.5" cy="23.5"></circle><circle fill="#00d084" cx="2.5" cy="24.5" r="0.25" opacity="1"></circle><circle fill="#00d084" cx="3.5" cy="3.5" r="1.5"></circle><circle r="3" fill="none" cx="3.5" cy="3.5" stroke-width="1" stroke="#00d084"></circle><circle opacity="1" r="0.25" fill="#00d084" cx="3.5" cy="8.5"></circle><circle opacity="1" r="0.25" fill="#00d084" cx="3.5" cy="9.5"></circle><circle opacity="1" r="0.25" fill="#00d084" cx="3.5" cy="10.5"></circle><circle opacity="1" r="0.25" fill="#00d084" cx="3.5" cy="11.5"></circle><circle opacity="1" r="0.25" fill="#00d084" cx="3.5" cy="18.5"></circle><circle opacity="1" r="0.25" fill="#00d084" cx="3.5" cy="19.5"></circle><circle opacity="1" r="0.25" fill="#00d084" cx="3.5" cy="21.5"></circle><circle opacity="1" r="0.25" fill="#00d084" cx="3.5" cy="23.5"></circle><circle opacity="1" r="0.25" fill="#00d084" cx="3.5" cy="24.5"></circle><circle r="1.5" fill="#00d084" cx="3.5" cy="29.5"></circle><circle r="3" fill="none" cx="3.5" cy="29.5" stroke-width="1" stroke="#00d084"></circle><circle opacity="1" r="0.25" fill="#00d084" cx="4.5" cy="9.5"></circle><circle opacity="1" r="0.25" fill="#00d084" cx="4.5" cy="10.5"></circle><circle opacity="1" r="0.25" fill="#00d084" cx="4.5" cy="11.5"></circle><circle opacity="1" r="0.25" fill="#00d084" cx="4.5" cy="13.5"></circle><circle opacity="1" r="0.25" fill="#00d084" cx="4.5" cy="16.5"></circle><circle opacity="1" r="0.25" fill="#00d084" cx="4.5" cy="17.5"></circle><circle opacity="1" r="0.25" fill="#00d084" cx="4.5" cy="18.5"></circle><circle opacity="1" r="0.25" fill="#00d084" cx="4.5" cy="21.5"></circle><circle opacity="1" r="0.25" fill="#00d084" cx="4.5" cy="22.5"></circle><circle opacity="1" r="0.25" fill="#00d084" cx="4.5" cy="23.5"></circle><circle opacity="1" r="0.25" fill="#00d084" cx="4.5" cy="24.5"></circle><circle opacity="1" r="0.25" fill="#00d084" cx="5.5" cy="9.5"></circle><circle opacity="1" r="0.25" fill="#00d084" cx="5.5" cy="12.5"></circle><circle opacity="1" r="0.25" fill="#00d084" cx="5.5" cy="13.5"></circle><circle opacity="1" r="0.25" fill="#00d084" cx="5.5" cy="15.5"></circle><circle opacity="1" r="0.25" fill="#00d084" cx="5.5" cy="16.5"></circle><circle opacity="1" r="0.25" fill="#00d084" cx="5.5" cy="17.5"></circle><circle opacity="1" r="0.25" fill="#00d084" cx="5.5" cy="21.5"></circle><circle opacity="1" r="0.25" fill="#00d084" cx="5.5" cy="23.5"></circle><circle opacity="1" r="0.25" fill="#00d084" cx="6.5" cy="8.5"></circle><circle opacity="1" r="0.25" fill="#00d084" cx="6.5" cy="10.5"></circle><circle opacity="1" r="0.25" fill="#00d084" cx="6.5" cy="12.5"></circle><circle opacity="1" r="0.25" fill="#00d084" cx="6.5" cy="14.5"></circle><circle opacity="1" r="0.25" fill="#00d084" cx="6.5" cy="16.5"></circle><circle opacity="1" r="0.25" fill="#00d084" cx="6.5" cy="18.5"></circle><circle opacity="1" r="0.25" fill="#00d084" cx="6.5" cy="20.5"></circle><circle opacity="1" r="0.25" fill="#00d084" cx="6.5" cy="22.5"></circle><circle opacity="1" r="0.25" fill="#00d084" cx="6.5" cy="24.5"></circle><circle opacity="1" r="0.25" fill="#00d084" cx="7.5" cy="8.5"></circle><circle opacity="1" r="0.25" fill="#00d084" cx="7.5" cy="10.5"></circle><circle opacity="1" r="0.25" fill="#00d084" cx="7.5" cy="11.5"></circle><circle opacity="1" r="0.25" fill="#00d084" cx="7.5" cy="12.5"></circle><circle opacity="1" r="0.25" fill="#00d084" cx="7.5" cy="14.5"></circle><circle opacity="1" r="0.25" fill="#00d084" cx="7.5" cy="15.5"></circle><circle opacity="1" r="0.25" fill="#00d084" cx="7.5" cy="16.5"></circle><circle opacity="1" r="0.25" fill="#00d084" cx="7.5" cy="17.5"></circle><circle opacity="1" r="0.25" fill="#00d084" cx="7.5" cy="19.5"></circle><circle opacity="1" r="0.25" fill="#00d084" cx="7.5" cy="24.5"></circle><circle opacity="1" r="0.25" fill="#00d084" cx="8.5" cy="0.5"></circle><circle opacity="1" r="0.25" fill="#00d084" cx="8.5" cy="2.5"></circle><circle opacity="1" r="0.25" fill="#00d084" cx="8.5" cy="3.5"></circle><circle opacity="1" r="0.25" fill="#00d084" cx="8.5" cy="5.5"></circle><circle opacity="1" r="0.25" fill="#00d084" cx="8.5" cy="6.5"></circle><circle opacity="1" r="0.25" fill="#00d084" cx="8.5" cy="7.5"></circle><circle opacity="1" r="0.25" fill="#00d084" cx="8.5" cy="12.5"></circle><circle opacity="1" r="0.25" fill="#00d084" cx="8.5" cy="13.5"></circle><circle opacity="1" r="0.25" fill="#00d084" cx="8.5" cy="14.5"></circle><circle opacity="1" r="0.25" fill="#00d084" cx="8.5" cy="15.5"></circle><circle opacity="1" r="0.25" fill="#00d084" cx="8.5" cy="17.5"></circle><circle opacity="1" r="0.25" fill="#00d084" cx="8.5" cy="21.5"></circle><circle opacity="1" r="0.25" fill="#00d084" cx="8.5" cy="23.5"></circle><circle opacity="1" r="0.25" fill="#00d084" cx="8.5" cy="26.5"></circle><circle opacity="1" r="0.25" fill="#00d084" cx="8.5" cy="29.5"></circle><circle opacity="1" r="0.25" fill="#00d084" cx="8.5" cy="31.5"></circle><circle opacity="1" r="0.25" fill="#00d084" cx="8.5" cy="32.5"></circle><circle opacity="1" r="0.25" fill="#00d084" cx="9.5" cy="0.5"></circle><circle opacity="1" r="0.25" fill="#00d084" cx="9.5" cy="1.5"></circle><circle opacity="1" r="0.25" fill="#00d084" cx="9.5" cy="5.5"></circle><circle opacity="1" r="0.25" fill="#00d084" cx="9.5" cy="8.5"></circle><circle opacity="1" r="0.25" fill="#00d084" cx="9.5" cy="9.5"></circle><circle opacity="1" r="0.25" fill="#00d084" cx="9.5" cy="11.5"></circle><circle opacity="1" r="0.25" fill="#00d084" cx="9.5" cy="12.5"></circle><circle opacity="1" r="0.25" fill="#00d084" cx="9.5" cy="13.5"></circle><circle opacity="1" r="0.25" fill="#00d084" cx="9.5" cy="16.5"></circle><circle opacity="1" r="0.25" fill="#00d084" cx="9.5" cy="17.5"></circle><circle opacity="1" r="0.25" fill="#00d084" cx="9.5" cy="18.5"></circle><circle opacity="1" r="0.25" fill="#00d084" cx="9.5" cy="19.5"></circle><circle opacity="1" r="0.25" fill="#00d084" cx="9.5" cy="22.5"></circle><circle opacity="1" r="0.25" fill="#00d084" cx="9.5" cy="23.5"></circle><circle opacity="1" r="0.25" fill="#00d084" cx="9.5" cy="25.5"></circle><circle opacity="1" r="0.25" fill="#00d084" cx="9.5" cy="26.5"></circle><circle opacity="1" r="0.25" fill="#00d084" cx="9.5" cy="29.5"></circle><circle opacity="1" r="0.25" fill="#00d084" cx="9.5" cy="30.5"></circle><circle opacity="1" r="0.25" fill="#00d084" cx="9.5" cy="31.5"></circle><circle opacity="1" r="0.25" fill="#00d084" cx="9.5" cy="32.5"></circle><circle opacity="1" r="0.25" fill="#00d084" cx="10.5" cy="2.5"></circle><circle opacity="1" r="0.25" fill="#00d084" cx="10.5" cy="3.5"></circle><circle opacity="1" r="0.25" fill="#00d084" cx="10.5" cy="5.5"></circle><circle opacity="1" r="0.25" fill="#00d084" cx="10.5" cy="6.5"></circle><circle opacity="1" r="0.25" fill="#00d084" cx="10.5" cy="9.5"></circle><circle opacity="1" r="0.25" fill="#00d084" cx="10.5" cy="10.5"></circle><circle opacity="1" r="0.25" fill="#00d084" cx="10.5" cy="13.5"></circle><circle opacity="1" r="0.25" fill="#00d084" cx="10.5" cy="16.5"></circle><circle opacity="1" r="0.25" fill="#00d084" cx="10.5" cy="18.5"></circle><circle opacity="1" r="0.25" fill="#00d084" cx="10.5" cy="21.5"></circle><circle opacity="1" r="0.25" fill="#00d084" cx="10.5" cy="22.5"></circle><circle opacity="1" r="0.25" fill="#00d084" cx="10.5" cy="23.5"></circle><circle opacity="1" r="0.25" fill="#00d084" cx="10.5" cy="24.5"></circle><circle opacity="1" r="0.25" fill="#00d084" cx="10.5" cy="27.5"></circle><circle opacity="1" r="0.25" fill="#00d084" cx="10.5" cy="28.5"></circle><circle opacity="1" r="0.25" fill="#00d084" cx="10.5" cy="29.5"></circle><circle opacity="1" r="0.25" fill="#00d084" cx="10.5" cy="31.5"></circle><circle opacity="1" r="0.25" fill="#00d084" cx="10.5" cy="32.5"></circle><circle opacity="1" r="0.25" fill="#00d084" cx="11.5" cy="1.5"></circle><circle opacity="1" r="0.25" fill="#00d084" cx="11.5" cy="2.5"></circle><circle opacity="1" r="0.25" fill="#00d084" cx="11.5" cy="3.5"></circle><circle opacity="1" r="0.25" fill="#00d084" cx="11.5" cy="4.5"></circle><circle opacity="1" r="0.25" fill="#00d084" cx="11.5" cy="8.5"></circle><circle opacity="1" r="0.25" fill="#00d084" cx="11.5" cy="9.5"></circle><circle opacity="1" r="0.25" fill="#00d084" cx="11.5" cy="16.5"></circle><circle opacity="1" r="0.25" fill="#00d084" cx="11.5" cy="17.5"></circle><circle opacity="1" r="0.25" fill="#00d084" cx="11.5" cy="19.5"></circle><circle opacity="1" r="0.25" fill="#00d084" cx="11.5" cy="20.5"></circle><circle opacity="1" r="0.25" fill="#00d084" cx="11.5" cy="21.5"></circle><circle opacity="1" r="0.25" fill="#00d084" cx="11.5" cy="22.5"></circle><circle opacity="1" r="0.25" fill="#00d084" cx="11.5" cy="27.5"></circle><circle opacity="1" r="0.25" fill="#00d084" cx="11.5" cy="29.5"></circle><circle opacity="1" r="0.25" fill="#00d084" cx="11.5" cy="32.5"></circle><circle opacity="1" r="0.25" fill="#00d084" cx="12.5" cy="0.5"></circle><circle opacity="1" r="0.25" fill="#00d084" cx="12.5" cy="1.5"></circle><circle opacity="1" r="0.25" fill="#00d084" cx="12.5" cy="2.5"></circle><circle opacity="1" r="0.25" fill="#00d084" cx="12.5" cy="3.5"></circle><circle opacity="1" r="0.25" fill="#00d084" cx="12.5" cy="5.5"></circle><circle opacity="1" r="0.25" fill="#00d084" cx="12.5" cy="6.5"></circle><circle opacity="1" r="0.25" fill="#00d084" cx="12.5" cy="9.5"></circle><circle opacity="1" r="0.25" fill="#00d084" cx="12.5" cy="11.5"></circle><circle opacity="1" r="0.25" fill="#00d084" cx="12.5" cy="14.5"></circle><circle opacity="1" r="0.25" fill="#00d084" cx="12.5" cy="15.5"></circle><circle opacity="1" r="0.25" fill="#00d084" cx="12.5" cy="16.5"></circle><circle opacity="1" r="0.25" fill="#00d084" cx="12.5" cy="19.5"></circle><circle opacity="1" r="0.25" fill="#00d084" cx="12.5" cy="20.5"></circle><circle opacity="1" r="0.25" fill="#00d084" cx="12.5" cy="21.5"></circle><circle opacity="1" r="0.25" fill="#00d084" cx="12.5" cy="22.5"></circle><circle opacity="1" r="0.25" fill="#00d084" cx="12.5" cy="23.5"></circle><circle opacity="1" r="0.25" fill="#00d084" cx="12.5" cy="24.5"></circle><circle opacity="1" r="0.25" fill="#00d084" cx="12.5" cy="27.5"></circle><circle opacity="1" r="0.25" fill="#00d084" cx="12.5" cy="29.5"></circle><circle opacity="1" r="0.25" fill="#00d084" cx="12.5" cy="31.5"></circle><circle opacity="1" r="0.25" fill="#00d084" cx="13.5" cy="0.5"></circle><circle opacity="1" r="0.25" fill="#00d084" cx="13.5" cy="4.5"></circle><circle opacity="1" r="0.25" fill="#00d084" cx="13.5" cy="7.5"></circle><circle opacity="1" r="0.25" fill="#00d084" cx="13.5" cy="9.5"></circle><circle opacity="1" r="0.25" fill="#00d084" cx="13.5" cy="11.5"></circle><circle opacity="1" r="0.25" fill="#00d084" cx="13.5" cy="14.5"></circle><circle opacity="1" r="0.25" fill="#00d084" cx="13.5" cy="20.5"></circle><circle opacity="1" r="0.25" fill="#00d084" cx="13.5" cy="23.5"></circle><circle opacity="1" r="0.25" fill="#00d084" cx="13.5" cy="25.5"></circle><circle opacity="1" r="0.25" fill="#00d084" cx="13.5" cy="27.5"></circle><circle opacity="1" r="0.25" fill="#00d084" cx="13.5" cy="29.5"></circle><circle opacity="1" r="0.25" fill="#00d084" cx="13.5" cy="30.5"></circle><circle opacity="1" r="0.25" fill="#00d084" cx="13.5" cy="31.5"></circle><circle opacity="1" r="0.25" fill="#00d084" cx="14.5" cy="0.5"></circle><circle opacity="1" r="0.25" fill="#00d084" cx="14.5" cy="2.5"></circle><circle opacity="1" r="0.25" fill="#00d084" cx="14.5" cy="5.5"></circle><circle opacity="1" r="0.25" fill="#00d084" cx="14.5" cy="6.5"></circle><circle opacity="1" r="0.25" fill="#00d084" cx="14.5" cy="7.5"></circle><circle opacity="1" r="0.25" fill="#00d084" cx="14.5" cy="10.5"></circle><circle opacity="1" r="0.25" fill="#00d084" cx="14.5" cy="11.5"></circle><circle opacity="1" r="0.25" fill="#00d084" cx="14.5" cy="14.5"></circle><circle opacity="1" r="0.25" fill="#00d084" cx="14.5" cy="17.5"></circle><circle opacity="1" r="0.25" fill="#00d084" cx="14.5" cy="18.5"></circle><circle opacity="1" r="0.25" fill="#00d084" cx="14.5" cy="19.5"></circle><circle opacity="1" r="0.25" fill="#00d084" cx="14.5" cy="20.5"></circle><circle opacity="1" r="0.25" fill="#00d084" cx="14.5" cy="22.5"></circle><circle opacity="1" r="0.25" fill="#00d084" cx="14.5" cy="24.5"></circle><circle opacity="1" r="0.25" fill="#00d084" cx="14.5" cy="28.5"></circle><circle opacity="1" r="0.25" fill="#00d084" cx="14.5" cy="30.5"></circle><circle opacity="1" r="0.25" fill="#00d084" cx="15.5" cy="2.5"></circle><circle opacity="1" r="0.25" fill="#00d084" cx="15.5" cy="4.5"></circle><circle opacity="1" r="0.25" fill="#00d084" cx="15.5" cy="5.5"></circle><circle opacity="1" r="0.25" fill="#00d084" cx="15.5" cy="9.5"></circle><circle opacity="1" r="0.25" fill="#00d084" cx="15.5" cy="11.5"></circle><circle fill="#00d084" cx="15.5" cy="12.5" r="0.25" opacity="1"></circle><circle fill="#00d084" cx="15.5" cy="13.5" r="0.25" opacity="1"></circle><circle opacity="1" r="0.25" fill="#00d084" cx="15.5" cy="15.5"></circle><circle opacity="1" r="0.25" fill="#00d084" cx="15.5" cy="21.5"></circle><circle opacity="1" r="0.25" fill="#00d084" cx="15.5" cy="22.5"></circle><circle opacity="1" r="0.25" fill="#00d084" cx="15.5" cy="24.5"></circle><circle opacity="1" r="0.25" fill="#00d084" cx="15.5" cy="25.5"></circle><circle opacity="1" r="0.25" fill="#00d084" cx="15.5" cy="26.5"></circle><circle opacity="1" r="0.25" fill="#00d084" cx="15.5" cy="27.5"></circle><circle opacity="1" r="0.25" fill="#00d084" cx="15.5" cy="28.5"></circle><circle opacity="1" r="0.25" fill="#00d084" cx="15.5" cy="29.5"></circle><circle opacity="1" r="0.25" fill="#00d084" cx="15.5" cy="30.5"></circle><circle opacity="1" r="0.25" fill="#00d084" cx="16.5" cy="0.5"></circle><circle opacity="1" r="0.25" fill="#00d084" cx="16.5" cy="3.5"></circle><circle opacity="1" r="0.25" fill="#00d084" cx="16.5" cy="4.5"></circle><circle opacity="1" r="0.25" fill="#00d084" cx="16.5" cy="6.5"></circle><circle opacity="1" r="0.25" fill="#00d084" cx="16.5" cy="8.5"></circle><circle opacity="1" r="0.25" fill="#00d084" cx="16.5" cy="11.5"></circle><circle opacity="1" r="0.25" fill="#00d084" cx="16.5" cy="13.5"></circle><circle opacity="1" r="0.25" fill="#00d084" cx="16.5" cy="14.5"></circle><circle opacity="1" r="0.25" fill="#00d084" cx="16.5" cy="16.5"></circle><circle opacity="1" r="0.25" fill="#00d084" cx="16.5" cy="18.5"></circle><circle opacity="1" r="0.25" fill="#00d084" cx="16.5" cy="20.5"></circle><circle opacity="1" r="0.25" fill="#00d084" cx="16.5" cy="21.5"></circle><circle opacity="1" r="0.25" fill="#00d084" cx="16.5" cy="22.5"></circle><circle opacity="1" r="0.25" fill="#00d084" cx="16.5" cy="25.5"></circle><circle opacity="1" r="0.25" fill="#00d084" cx="16.5" cy="26.5"></circle><circle opacity="1" r="0.25" fill="#00d084" cx="16.5" cy="28.5"></circle><circle opacity="1" r="0.25" fill="#00d084" cx="17.5" cy="4.5"></circle><circle opacity="1" r="0.25" fill="#00d084" cx="17.5" cy="5.5"></circle><circle opacity="1" r="0.25" fill="#00d084" cx="17.5" cy="8.5"></circle><circle opacity="1" r="0.25" fill="#00d084" cx="17.5" cy="11.5"></circle><circle opacity="1" r="0.25" fill="#00d084" cx="17.5" cy="12.5"></circle><circle opacity="1" r="0.25" fill="#00d084" cx="17.5" cy="13.5"></circle><circle opacity="1" r="0.25" fill="#00d084" cx="17.5" cy="15.5"></circle><circle opacity="1" r="0.25" fill="#00d084" cx="17.5" cy="20.5"></circle><circle opacity="1" r="0.25" fill="#00d084" cx="17.5" cy="23.5"></circle><circle opacity="1" r="0.25" fill="#00d084" cx="17.5" cy="24.5"></circle><circle opacity="1" r="0.25" fill="#00d084" cx="17.5" cy="25.5"></circle><circle opacity="1" r="0.25" fill="#00d084" cx="17.5" cy="26.5"></circle><circle opacity="1" r="0.25" fill="#00d084" cx="17.5" cy="28.5"></circle><circle opacity="1" r="0.25" fill="#00d084" cx="17.5" cy="29.5"></circle><circle opacity="1" r="0.25" fill="#00d084" cx="18.5" cy="0.5"></circle><circle opacity="1" r="0.25" fill="#00d084" cx="18.5" cy="1.5"></circle><circle opacity="1" r="0.25" fill="#00d084" cx="18.5" cy="4.5"></circle><circle opacity="1" r="0.25" fill="#00d084" cx="18.5" cy="6.5"></circle><circle opacity="1" r="0.25" fill="#00d084" cx="18.5" cy="8.5"></circle><circle opacity="1" r="0.25" fill="#00d084" cx="18.5" cy="9.5"></circle><circle opacity="1" r="0.25" fill="#00d084" cx="18.5" cy="11.5"></circle><circle opacity="1" r="0.25" fill="#00d084" cx="18.5" cy="12.5"></circle><circle opacity="1" r="0.25" fill="#00d084" cx="18.5" cy="15.5"></circle><circle opacity="1" r="0.25" fill="#00d084" cx="18.5" cy="18.5"></circle><circle opacity="1" r="0.25" fill="#00d084" cx="18.5" cy="20.5"></circle><circle opacity="1" r="0.25" fill="#00d084" cx="18.5" cy="21.5"></circle><circle opacity="1" r="0.25" fill="#00d084" cx="18.5" cy="24.5"></circle><circle opacity="1" r="0.25" fill="#00d084" cx="18.5" cy="26.5"></circle><circle opacity="1" r="0.25" fill="#00d084" cx="18.5" cy="28.5"></circle><circle opacity="1" r="0.25" fill="#00d084" cx="18.5" cy="30.5"></circle><circle opacity="1" r="0.25" fill="#00d084" cx="18.5" cy="31.5"></circle><circle opacity="1" r="0.25" fill="#00d084" cx="19.5" cy="2.5"></circle><circle opacity="1" r="0.25" fill="#00d084" cx="19.5" cy="4.5"></circle><circle opacity="1" r="0.25" fill="#00d084" cx="19.5" cy="8.5"></circle><circle opacity="1" r="0.25" fill="#00d084" cx="19.5" cy="9.5"></circle><circle opacity="1" r="0.25" fill="#00d084" cx="19.5" cy="14.5"></circle><circle opacity="1" r="0.25" fill="#00d084" cx="19.5" cy="15.5"></circle><circle opacity="1" r="0.25" fill="#00d084" cx="19.5" cy="17.5"></circle><circle opacity="1" r="0.25" fill="#00d084" cx="19.5" cy="18.5"></circle><circle opacity="1" r="0.25" fill="#00d084" cx="19.5" cy="19.5"></circle><circle opacity="1" r="0.25" fill="#00d084" cx="19.5" cy="22.5"></circle><circle opacity="1" r="0.25" fill="#00d084" cx="19.5" cy="23.5"></circle><circle opacity="1" r="0.25" fill="#00d084" cx="19.5" cy="25.5"></circle><circle opacity="1" r="0.25" fill="#00d084" cx="19.5" cy="26.5"></circle><circle opacity="1" r="0.25" fill="#00d084" cx="19.5" cy="27.5"></circle><circle opacity="1" r="0.25" fill="#00d084" cx="19.5" cy="28.5"></circle><circle opacity="1" r="0.25" fill="#00d084" cx="19.5" cy="31.5"></circle><circle opacity="1" r="0.25" fill="#00d084" cx="20.5" cy="0.5"></circle><circle opacity="1" r="0.25" fill="#00d084" cx="20.5" cy="1.5"></circle><circle opacity="1" r="0.25" fill="#00d084" cx="20.5" cy="2.5"></circle><circle opacity="1" r="0.25" fill="#00d084" cx="20.5" cy="5.5"></circle><circle opacity="1" r="0.25" fill="#00d084" cx="20.5" cy="6.5"></circle><circle opacity="1" r="0.25" fill="#00d084" cx="20.5" cy="13.5"></circle><circle opacity="1" r="0.25" fill="#00d084" cx="20.5" cy="14.5"></circle><circle opacity="1" r="0.25" fill="#00d084" cx="20.5" cy="15.5"></circle><circle opacity="1" r="0.25" fill="#00d084" cx="20.5" cy="16.5"></circle><circle opacity="1" r="0.25" fill="#00d084" cx="20.5" cy="22.5"></circle><circle opacity="1" r="0.25" fill="#00d084" cx="20.5" cy="23.5"></circle><circle opacity="1" r="0.25" fill="#00d084" cx="20.5" cy="27.5"></circle><circle opacity="1" r="0.25" fill="#00d084" cx="20.5" cy="28.5"></circle><circle opacity="1" r="0.25" fill="#00d084" cx="20.5" cy="29.5"></circle><circle opacity="1" r="0.25" fill="#00d084" cx="20.5" cy="30.5"></circle><circle opacity="1" r="0.25" fill="#00d084" cx="21.5" cy="0.5"></circle><circle opacity="1" r="0.25" fill="#00d084" cx="21.5" cy="1.5"></circle><circle opacity="1" r="0.25" fill="#00d084" cx="21.5" cy="3.5"></circle><circle opacity="1" r="0.25" fill="#00d084" cx="21.5" cy="4.5"></circle><circle opacity="1" r="0.25" fill="#00d084" cx="21.5" cy="7.5"></circle><circle opacity="1" r="0.25" fill="#00d084" cx="21.5" cy="8.5"></circle><circle opacity="1" r="0.25" fill="#00d084" cx="21.5" cy="9.5"></circle><circle opacity="1" r="0.25" fill="#00d084" cx="21.5" cy="10.5"></circle><circle opacity="1" r="0.25" fill="#00d084" cx="21.5" cy="12.5"></circle><circle opacity="1" r="0.25" fill="#00d084" cx="21.5" cy="13.5"></circle><circle opacity="1" r="0.25" fill="#00d084" cx="21.5" cy="14.5"></circle><circle opacity="1" r="0.25" fill="#00d084" cx="21.5" cy="15.5"></circle><circle opacity="1" r="0.25" fill="#00d084" cx="21.5" cy="16.5"></circle><circle opacity="1" r="0.25" fill="#00d084" cx="21.5" cy="20.5"></circle><circle opacity="1" r="0.25" fill="#00d084" cx="21.5" cy="21.5"></circle><circle opacity="1" r="0.25" fill="#00d084" cx="21.5" cy="22.5"></circle><circle opacity="1" r="0.25" fill="#00d084" cx="21.5" cy="23.5"></circle><circle opacity="1" r="0.25" fill="#00d084" cx="21.5" cy="25.5"></circle><circle opacity="1" r="0.25" fill="#00d084" cx="21.5" cy="26.5"></circle><circle opacity="1" r="0.25" fill="#00d084" cx="21.5" cy="29.5"></circle><circle opacity="1" r="0.25" fill="#00d084" cx="21.5" cy="32.5"></circle><circle opacity="1" r="0.25" fill="#00d084" cx="22.5" cy="3.5"></circle><circle opacity="1" r="0.25" fill="#00d084" cx="22.5" cy="6.5"></circle><circle opacity="1" r="0.25" fill="#00d084" cx="22.5" cy="7.5"></circle><circle opacity="1" r="0.25" fill="#00d084" cx="22.5" cy="8.5"></circle><circle opacity="1" r="0.25" fill="#00d084" cx="22.5" cy="10.5"></circle><circle opacity="1" r="0.25" fill="#00d084" cx="22.5" cy="12.5"></circle><circle opacity="1" r="0.25" fill="#00d084" cx="22.5" cy="13.5"></circle><circle opacity="1" r="0.25" fill="#00d084" cx="22.5" cy="15.5"></circle><circle opacity="1" r="0.25" fill="#00d084" cx="22.5" cy="19.5"></circle><circle opacity="1" r="0.25" fill="#00d084" cx="22.5" cy="20.5"></circle><circle opacity="1" r="0.25" fill="#00d084" cx="22.5" cy="23.5"></circle><circle opacity="1" r="0.25" fill="#00d084" cx="22.5" cy="24.5"></circle><circle opacity="1" r="0.25" fill="#00d084" cx="22.5" cy="25.5"></circle><circle opacity="1" r="0.25" fill="#00d084" cx="22.5" cy="26.5"></circle><circle opacity="1" r="0.25" fill="#00d084" cx="22.5" cy="30.5"></circle><circle opacity="1" r="0.25" fill="#00d084" cx="22.5" cy="31.5"></circle><circle opacity="1" r="0.25" fill="#00d084" cx="22.5" cy="32.5"></circle><circle opacity="1" r="0.25" fill="#00d084" cx="23.5" cy="1.5"></circle><circle opacity="1" r="0.25" fill="#00d084" cx="23.5" cy="3.5"></circle><circle opacity="1" r="0.25" fill="#00d084" cx="23.5" cy="7.5"></circle><circle opacity="1" r="0.25" fill="#00d084" cx="23.5" cy="9.5"></circle><circle opacity="1" r="0.25" fill="#00d084" cx="23.5" cy="12.5"></circle><circle opacity="1" r="0.25" fill="#00d084" cx="23.5" cy="14.5"></circle><circle opacity="1" r="0.25" fill="#00d084" cx="23.5" cy="15.5"></circle><circle opacity="1" r="0.25" fill="#00d084" cx="23.5" cy="18.5"></circle><circle opacity="1" r="0.25" fill="#00d084" cx="23.5" cy="20.5"></circle><circle opacity="1" r="0.25" fill="#00d084" cx="23.5" cy="29.5"></circle><circle opacity="1" r="0.25" fill="#00d084" cx="23.5" cy="32.5"></circle><circle opacity="1" r="0.25" fill="#00d084" cx="24.5" cy="0.5"></circle><circle opacity="1" r="0.25" fill="#00d084" cx="24.5" cy="2.5"></circle><circle opacity="1" r="0.25" fill="#00d084" cx="24.5" cy="4.5"></circle><circle opacity="1" r="0.25" fill="#00d084" cx="24.5" cy="5.5"></circle><circle opacity="1" r="0.25" fill="#00d084" cx="24.5" cy="6.5"></circle><circle opacity="1" r="0.25" fill="#00d084" cx="24.5" cy="9.5"></circle><circle opacity="1" r="0.25" fill="#00d084" cx="24.5" cy="10.5"></circle><circle opacity="1" r="0.25" fill="#00d084" cx="24.5" cy="11.5"></circle><circle opacity="1" r="0.25" fill="#00d084" cx="24.5" cy="14.5"></circle><circle opacity="1" r="0.25" fill="#00d084" cx="24.5" cy="16.5"></circle><circle opacity="1" r="0.25" fill="#00d084" cx="24.5" cy="19.5"></circle><circle opacity="1" r="0.25" fill="#00d084" cx="24.5" cy="24.5"></circle><circle opacity="1" r="0.25" fill="#00d084" cx="24.5" cy="25.5"></circle><circle opacity="1" r="0.25" fill="#00d084" cx="24.5" cy="26.5"></circle><circle opacity="1" r="0.25" fill="#00d084" cx="24.5" cy="27.5"></circle><circle opacity="1" r="0.25" fill="#00d084" cx="24.5" cy="28.5"></circle><circle opacity="1" r="0.25" fill="#00d084" cx="24.5" cy="29.5"></circle><circle opacity="1" r="0.25" fill="#00d084" cx="24.5" cy="32.5"></circle><circle opacity="1" r="0.25" fill="#00d084" cx="25.5" cy="8.5"></circle><circle opacity="1" r="0.25" fill="#00d084" cx="25.5" cy="12.5"></circle><circle opacity="1" r="0.25" fill="#00d084" cx="25.5" cy="14.5"></circle><circle opacity="1" r="0.25" fill="#00d084" cx="25.5" cy="15.5"></circle><circle opacity="1" r="0.25" fill="#00d084" cx="25.5" cy="16.5"></circle><circle opacity="1" r="0.25" fill="#00d084" cx="25.5" cy="19.5"></circle><circle opacity="1" r="0.25" fill="#00d084" cx="25.5" cy="21.5"></circle><circle opacity="1" r="0.25" fill="#00d084" cx="25.5" cy="24.5"></circle><circle opacity="1" r="0.25" fill="#00d084" cx="25.5" cy="28.5"></circle><circle opacity="1" r="0.25" fill="#00d084" cx="25.5" cy="29.5"></circle><circle opacity="1" r="0.25" fill="#00d084" cx="26.5" cy="8.5"></circle><circle opacity="1" r="0.25" fill="#00d084" cx="26.5" cy="11.5"></circle><circle opacity="1" r="0.25" fill="#00d084" cx="26.5" cy="17.5"></circle><circle opacity="1" r="0.25" fill="#00d084" cx="26.5" cy="18.5"></circle><circle opacity="1" r="0.25" fill="#00d084" cx="26.5" cy="19.5"></circle><circle opacity="1" r="0.25" fill="#00d084" cx="26.5" cy="20.5"></circle><circle opacity="1" r="0.25" fill="#00d084" cx="26.5" cy="21.5"></circle><circle opacity="1" r="0.25" fill="#00d084" cx="26.5" cy="23.5"></circle><circle opacity="1" r="0.25" fill="#00d084" cx="26.5" cy="24.5"></circle><circle opacity="1" r="0.25" fill="#00d084" cx="26.5" cy="26.5"></circle><circle opacity="1" r="0.25" fill="#00d084" cx="26.5" cy="28.5"></circle><circle opacity="1" r="0.25" fill="#00d084" cx="27.5" cy="8.5"></circle><circle opacity="1" r="0.25" fill="#00d084" cx="27.5" cy="10.5"></circle><circle opacity="1" r="0.25" fill="#00d084" cx="27.5" cy="15.5"></circle><circle opacity="1" r="0.25" fill="#00d084" cx="27.5" cy="17.5"></circle><circle opacity="1" r="0.25" fill="#00d084" cx="27.5" cy="18.5"></circle><circle opacity="1" r="0.25" fill="#00d084" cx="27.5" cy="19.5"></circle><circle opacity="1" r="0.25" fill="#00d084" cx="27.5" cy="23.5"></circle><circle opacity="1" r="0.25" fill="#00d084" cx="27.5" cy="24.5"></circle><circle opacity="1" r="0.25" fill="#00d084" cx="27.5" cy="28.5"></circle><circle opacity="1" r="0.25" fill="#00d084" cx="27.5" cy="30.5"></circle><circle opacity="1" r="0.25" fill="#00d084" cx="27.5" cy="31.5"></circle><circle opacity="1" r="0.25" fill="#00d084" cx="28.5" cy="11.5"></circle><circle opacity="1" r="0.25" fill="#00d084" cx="28.5" cy="13.5"></circle><circle opacity="1" r="0.25" fill="#00d084" cx="28.5" cy="15.5"></circle><circle opacity="1" r="0.25" fill="#00d084" cx="28.5" cy="16.5"></circle><circle opacity="1" r="0.25" fill="#00d084" cx="28.5" cy="17.5"></circle><circle opacity="1" r="0.25" fill="#00d084" cx="28.5" cy="18.5"></circle><circle opacity="1" r="0.25" fill="#00d084" cx="28.5" cy="22.5"></circle><circle opacity="1" r="0.25" fill="#00d084" cx="28.5" cy="23.5"></circle><circle opacity="1" r="0.25" fill="#00d084" cx="28.5" cy="24.5"></circle><circle opacity="1" r="0.25" fill="#00d084" cx="28.5" cy="25.5"></circle><circle opacity="1" r="0.25" fill="#00d084" cx="28.5" cy="26.5"></circle><circle opacity="1" r="0.25" fill="#00d084" cx="28.5" cy="27.5"></circle><circle opacity="1" r="0.25" fill="#00d084" cx="28.5" cy="28.5"></circle><circle opacity="1" r="0.25" fill="#00d084" cx="28.5" cy="30.5"></circle><circle opacity="1" r="0.25" fill="#00d084" cx="28.5" cy="31.5"></circle><circle opacity="1" r="0.25" fill="#00d084" cx="28.5" cy="32.5"></circle><circle fill="#00d084" cx="29.5" cy="3.5" r="1.5"></circle><circle fill="none" stroke-width="1" stroke="#00d084" cx="29.5" cy="3.5" r="3"></circle><circle opacity="1" r="0.25" fill="#00d084" cx="29.5" cy="8.5"></circle><circle opacity="1" r="0.25" fill="#00d084" cx="29.5" cy="9.5"></circle><circle opacity="1" r="0.25" fill="#00d084" cx="29.5" cy="10.5"></circle><circle opacity="1" r="0.25" fill="#00d084" cx="29.5" cy="11.5"></circle><circle opacity="1" r="0.25" fill="#00d084" cx="29.5" cy="12.5"></circle><circle opacity="1" r="0.25" fill="#00d084" cx="29.5" cy="14.5"></circle><circle opacity="1" r="0.25" fill="#00d084" cx="29.5" cy="16.5"></circle><circle opacity="1" r="0.25" fill="#00d084" cx="29.5" cy="19.5"></circle><circle opacity="1" r="0.25" fill="#00d084" cx="29.5" cy="21.5"></circle><circle opacity="1" r="0.25" fill="#00d084" cx="29.5" cy="22.5"></circle><circle opacity="1" r="0.25" fill="#00d084" cx="29.5" cy="23.5"></circle><circle opacity="1" r="0.25" fill="#00d084" cx="29.5" cy="31.5"></circle><circle opacity="1" r="0.25" fill="#00d084" cx="29.5" cy="32.5"></circle><circle opacity="1" r="0.25" fill="#00d084" cx="30.5" cy="8.5"></circle><circle opacity="1" r="0.25" fill="#00d084" cx="30.5" cy="9.5"></circle><circle opacity="1" r="0.25" fill="#00d084" cx="30.5" cy="10.5"></circle><circle opacity="1" r="0.25" fill="#00d084" cx="30.5" cy="12.5"></circle><circle opacity="1" r="0.25" fill="#00d084" cx="30.5" cy="13.5"></circle><circle opacity="1" r="0.25" fill="#00d084" cx="30.5" cy="15.5"></circle><circle opacity="1" r="0.25" fill="#00d084" cx="30.5" cy="16.5"></circle><circle opacity="1" r="0.25" fill="#00d084" cx="30.5" cy="20.5"></circle><circle opacity="1" r="0.25" fill="#00d084" cx="30.5" cy="22.5"></circle><circle opacity="1" r="0.25" fill="#00d084" cx="30.5" cy="26.5"></circle><circle opacity="1" r="0.25" fill="#00d084" cx="30.5" cy="27.5"></circle><circle opacity="1" r="0.25" fill="#00d084" cx="31.5" cy="9.5"></circle><circle opacity="1" r="0.25" fill="#00d084" cx="31.5" cy="11.5"></circle><circle opacity="1" r="0.25" fill="#00d084" cx="31.5" cy="12.5"></circle><circle opacity="1" r="0.25" fill="#00d084" cx="31.5" cy="17.5"></circle><circle opacity="1" r="0.25" fill="#00d084" cx="31.5" cy="18.5"></circle><circle opacity="1" r="0.25" fill="#00d084" cx="31.5" cy="20.5"></circle><circle opacity="1" r="0.25" fill="#00d084" cx="31.5" cy="24.5"></circle><circle opacity="1" r="0.25" fill="#00d084" cx="31.5" cy="28.5"></circle><circle opacity="1" r="0.25" fill="#00d084" cx="31.5" cy="32.5"></circle><circle opacity="1" r="0.25" fill="#00d084" cx="32.5" cy="8.5"></circle><circle opacity="1" r="0.25" fill="#00d084" cx="32.5" cy="12.5"></circle><circle opacity="1" r="0.25" fill="#00d084" cx="32.5" cy="13.5"></circle><circle opacity="1" r="0.25" fill="#00d084" cx="32.5" cy="16.5"></circle><circle opacity="1" r="0.25" fill="#00d084" cx="32.5" cy="17.5"></circle><circle opacity="1" r="0.25" fill="#00d084" cx="32.5" cy="18.5"></circle><circle opacity="1" r="0.25" fill="#00d084" cx="32.5" cy="19.5"></circle><circle opacity="1" r="0.25" fill="#00d084" cx="32.5" cy="21.5"></circle><circle opacity="1" r="0.25" fill="#00d084" cx="32.5" cy="25.5"></circle><circle opacity="1" r="0.25" fill="#00d084" cx="32.5" cy="29.5"></circle><path d="M32.048565,-1.29480038e-15 L67.951435,1.29480038e-15 C79.0954192,-7.52316311e-16 83.1364972,1.16032014 87.2105713,3.3391588 C91.2846454,5.51799746 94.4820025,8.71535463 96.6608412,12.7894287 C98.8396799,16.8635028 100,20.9045808 100,32.048565 L100,67.951435 C100,79.0954192 98.8396799,83.1364972 96.6608412,87.2105713 C94.4820025,91.2846454 91.2846454,94.4820025 87.2105713,96.6608412 C83.1364972,98.8396799 79.0954192,100 67.951435,100 L32.048565,100 C20.9045808,100 16.8635028,98.8396799 12.7894287,96.6608412 C8.71535463,94.4820025 5.51799746,91.2846454 3.3391588,87.2105713 C1.16032014,83.1364972 5.01544207e-16,79.0954192 -8.63200256e-16,67.951435 L8.63200256e-16,32.048565 C-5.01544207e-16,20.9045808 1.16032014,16.8635028 3.3391588,12.7894287 C5.51799746,8.71535463 8.71535463,5.51799746 12.7894287,3.3391588 C16.8635028,1.16032014 20.9045808,7.52316311e-16 32.048565,-1.29480038e-15 Z" stroke="#FFF" stroke-width="13.774104683195592" fill="#FFF" transform="translate(12.870000000000001,12.870000000000001) scale(0.0726,0.0726)"></path><g><defs><path id="defs-path39" d="M32.048565,-1.29480038e-15 L67.951435,1.29480038e-15 C79.0954192,-7.52316311e-16 83.1364972,1.16032014 87.2105713,3.3391588 C91.2846454,5.51799746 94.4820025,8.71535463 96.6608412,12.7894287 C98.8396799,16.8635028 100,20.9045808 100,32.048565 L100,67.951435 C100,79.0954192 98.8396799,83.1364972 96.6608412,87.2105713 C94.4820025,91.2846454 91.2846454,94.4820025 87.2105713,96.6608412 C83.1364972,98.8396799 79.0954192,100 67.951435,100 L32.048565,100 C20.9045808,100 16.8635028,98.8396799 12.7894287,96.6608412 C8.71535463,94.4820025 5.51799746,91.2846454 3.3391588,87.2105713 C1.16032014,83.1364972 5.01544207e-16,79.0954192 -8.63200256e-16,67.951435 L8.63200256e-16,32.048565 C-5.01544207e-16,20.9045808 1.16032014,16.8635028 3.3391588,12.7894287 C5.51799746,8.71535463 8.71535463,5.51799746 12.7894287,3.3391588 C16.8635028,1.16032014 20.9045808,7.52316311e-16 32.048565,-1.29480038e-15 Z" fill="#FFF" transform="translate(12.870000000000001,12.870000000000001) scale(0.0726,0.0726)"></path>                    </defs><clipPath id="clip-path40"><use xlink:href="#defs-path39" overflow="visible"></use></clipPath><g clip-path="url(#clip-path40)"><g transform="translate(12.870000000000001,12.870000000000001) scale(0.0726,0.0726)"><g><rect width="100" height="100" fill="#07c160"></rect><path d="M48.766,39.21a2.941,2.941,0,1,1,2.918-2.94,2.929,2.929,0,0,1-2.918,2.94m-16.455,0a2.941,2.941,0,1,1,2.918-2.941,2.93,2.93,0,0,1-2.918,2.941m8.227-17.039c-13.632,0-24.682,9.282-24.682,20.732,0,6.247,3.324,11.87,8.528,15.67a1.662,1.662,0,0,1,.691,1.352,1.984,1.984,0,0,1-.087.528c-.415,1.563-1.081,4.064-1.112,4.181a2.449,2.449,0,0,0-.132.607.825.825,0,0,0,.823.828.914.914,0,0,0,.474-.154l5.405-3.144a2.57,2.57,0,0,1,1.31-.382,2.442,2.442,0,0,1,.725.109,28.976,28.976,0,0,0,8.057,1.137c.455,0,.907-.012,1.356-.032a16.084,16.084,0,0,1-.829-5.082c0-10.442,10.078-18.908,22.511-18.908.45,0,.565.015,1.008.037-1.858-9.9-11.732-17.479-24.046-17.479" fill="#fff"></path><path d="M70.432,55.582A2.589,2.589,0,1,1,73,52.994a2.578,2.578,0,0,1-2.568,2.588m-13.713,0a2.589,2.589,0,1,1,2.568-2.588,2.578,2.578,0,0,1-2.568,2.588m20.319,16a16.3,16.3,0,0,0,7.106-13.058c0-9.542-9.208-17.276-20.568-17.276s-20.57,7.734-20.57,17.276S52.216,75.8,63.576,75.8a24.161,24.161,0,0,0,6.714-.947,2.079,2.079,0,0,1,.6-.091,2.138,2.138,0,0,1,1.092.319l4.5,2.62a.78.78,0,0,0,.4.129.688.688,0,0,0,.685-.691,2.081,2.081,0,0,0-.11-.5l-.927-3.486a1.641,1.641,0,0,1-.073-.44,1.385,1.385,0,0,1,.577-1.126" fill="#fff"></path></g></g></g></g></svg>